<svg width="97" height="97" viewBox="0 0 97 97" fill="none" xmlns="http://www.w3.org/2000/svg">
<path d="M48.4997 88.9167C42.9087 88.9167 37.6545 87.8551 32.7372 85.7319C27.8198 83.6087 23.5424 80.7296 19.9049 77.0948C16.2674 73.4573 13.3884 69.1799 11.2678 64.2625C9.14731 59.3452 8.0857 54.091 8.08301 48.5C8.08301 42.9091 9.14462 37.6549 11.2678 32.7375C13.3911 27.8202 16.2701 23.5427 19.9049 19.9052C23.5424 16.2677 27.8198 13.3887 32.7372 11.2682C37.6545 9.14768 42.9087 8.08607 48.4997 8.08337C54.0906 8.08337 59.3448 9.14499 64.2622 11.2682C69.1795 13.3914 73.457 16.2704 77.0945 19.9052C80.732 23.5427 83.6123 27.8202 85.7355 32.7375C87.8588 37.6549 88.919 42.9091 88.9163 48.5C88.9163 54.091 87.8547 59.3452 85.7315 64.2625C83.6083 69.1799 80.7293 73.4573 77.0945 77.0948C73.457 80.7323 69.1795 83.6127 64.2622 85.7359C59.3448 87.8591 54.0906 88.9194 48.4997 88.9167ZM48.4997 80.8334C57.5261 80.8334 65.1715 77.7011 71.4361 71.4365C77.7007 65.1719 80.833 57.5264 80.833 48.5C80.833 39.4736 77.7007 31.8282 71.4361 25.5636C65.1715 19.299 57.5261 16.1667 48.4997 16.1667C39.4733 16.1667 31.8278 19.299 25.5632 25.5636C19.2986 31.8282 16.1663 39.4736 16.1663 48.5C16.1663 57.5264 19.2986 65.1719 25.5632 71.4365C31.8278 77.7011 39.4733 80.8334 48.4997 80.8334ZM48.4997 72.75C41.7636 72.75 36.0379 70.3924 31.3226 65.6771C26.6073 60.9618 24.2497 55.2361 24.2497 48.5C24.2497 41.7639 26.6073 36.0382 31.3226 31.323C36.0379 26.6077 41.7636 24.25 48.4997 24.25C55.2358 24.25 60.9615 26.6077 65.6768 31.323C70.392 36.0382 72.7497 41.7639 72.7497 48.5C72.7497 55.2361 70.392 60.9618 65.6768 65.6771C60.9615 70.3924 55.2358 72.75 48.4997 72.75ZM48.4997 64.6667C52.9455 64.6667 56.7514 63.0837 59.9174 59.9177C63.0834 56.7518 64.6663 52.9459 64.6663 48.5C64.6663 44.0542 63.0834 40.2483 59.9174 37.0823C56.7514 33.9164 52.9455 32.3334 48.4997 32.3334C44.0538 32.3334 40.2479 33.9164 37.082 37.0823C33.916 40.2483 32.333 44.0542 32.333 48.5C32.333 52.9459 33.916 56.7518 37.082 59.9177C40.2479 63.0837 44.0538 64.6667 48.4997 64.6667ZM48.4997 56.5834C46.2768 56.5834 44.3731 55.7912 42.7888 54.2069C41.2045 52.6225 40.4136 50.7203 40.4163 48.5C40.4163 46.2771 41.2085 44.3735 42.7928 42.7892C44.3772 41.2048 46.2794 40.414 48.4997 40.4167C50.7226 40.4167 52.6262 41.2089 54.2105 42.7932C55.7949 44.3775 56.5857 46.2798 56.583 48.5C56.583 50.723 55.7908 52.6266 54.2065 54.2109C52.6222 55.7952 50.7199 56.5861 48.4997 56.5834Z" fill="#F39C12"/>
</svg>
